<svg width="22" height="18" viewBox="0 0 22 18" fill="currentColor">
  <path d="M20.2951 6.85716H16.7556L13.3172 0.380944C13.115 -8.61287e-06 12.7104 -0.0952351 12.3059 0.0952412C11.9014 0.285717 11.8003 0.66667 12.0025 1.04762L15.1375 6.85716H5.93476L9.06978 1.04762C9.27204 0.66667 9.06979 0.285717 8.7664 0.0952412C8.36189 -0.0952351 7.95737 0.0952295 7.75511 0.380944L4.31669 6.85716H0.979433C0.574915 6.85716 0.17041 7.14286 0.17041 7.61905C0.17041 8 0.473786 8.38094 0.979433 8.38094H1.1817L2.09186 11.2381C1.8896 11.3333 1.78845 11.5238 1.78845 11.8095C1.78845 12.1905 2.09186 12.4762 2.49637 12.4762L4.21558 18H17.059L18.7782 12.4762C19.1827 12.4762 19.4861 12.1905 19.4861 11.8095C19.4861 11.619 19.385 11.3333 19.1827 11.2381L20.0929 8.38094H20.2951C20.6997 8.38094 21.1042 8.09524 21.1042 7.61905C21.1042 7.14286 20.6997 6.85716 20.2951 6.85716ZM15.7443 16.4762H5.22688L4.01331 12.381H17.059L15.7443 16.4762ZM17.3624 10.9524H3.50767L2.69864 8.28573H18.1714L17.3624 10.9524Z" />
</svg>
